<?xml version="1.0" encoding="UTF-8" standalone="no"?>
<svg
   xmlns:dc="http://purl.org/dc/elements/1.1/"
   xmlns:cc="http://creativecommons.org/ns#"
   xmlns:rdf="http://www.w3.org/1999/02/22-rdf-syntax-ns#"
   xmlns:svg="http://www.w3.org/2000/svg"
   xmlns="http://www.w3.org/2000/svg"
   xmlns:sodipodi="http://sodipodi.sourceforge.net/DTD/sodipodi-0.dtd"
   xmlns:inkscape="http://www.inkscape.org/namespaces/inkscape"
   version="1.1"
   id="svg2"
   xml:space="preserve"
   width="793.70667"
   height="793.70667"
   viewBox="0 0 793.70667 793.70667"
   sodipodi:docname="logo.ai"><metadata
     id="metadata8"><rdf:RDF><cc:Work
         rdf:about=""><dc:format>image/svg+xml</dc:format><dc:type
           rdf:resource="http://purl.org/dc/dcmitype/StillImage" /></cc:Work></rdf:RDF></metadata><defs
     id="defs6"><clipPath
       clipPathUnits="userSpaceOnUse"
       id="clipPath18"><path
         d="M 0,841.89 H 595.28 V 0 H 0 Z"
         id="path16" /></clipPath></defs><sodipodi:namedview
     pagecolor="#ffffff"
     bordercolor="#666666"
     borderopacity="1"
     objecttolerance="10"
     gridtolerance="10"
     guidetolerance="10"
     inkscape:pageopacity="0"
     inkscape:pageshadow="2"
     inkscape:window-width="640"
     inkscape:window-height="480"
     id="namedview4" /><g
     id="g10"
     inkscape:groupmode="layer"
     inkscape:label="logo"
     transform="matrix(1.3333333,0,0,-1.3333333,0,1122.52)"><g
       id="g12"><g
         id="g14"
         clip-path="url(#clipPath18)"><g
           id="g20"
           transform="translate(576.8037,522.8926)"><path
             d="m 0,0 c 0,-154.629 -125.348,-279.973 -279.973,-279.973 -154.628,0 -279.977,125.344 -279.977,279.973 0,154.625 125.349,279.975 279.977,279.975 C -125.348,279.975 0,154.625 0,0"
             style="fill:#309687;fill-opacity:1;fill-rule:evenodd;stroke:none"
             id="path22" /></g><g
           id="g24"
           transform="translate(563.8604,597.5513)"><path
             d="m 0,0 c -2.916,2.111 -6.791,0.855 -9.751,2.793 -4.619,-1.079 -8.293,1.855 -11.818,3.642 -18.612,9.422 -38.3,17.416 -48.878,37.628 -5.136,9.814 -14.012,16.41 -23.84,21.256 -4.407,2.172 -6.625,3.683 -4.692,9.38 2.069,6.091 0.89,12.503 -7.298,13.364 -9.905,1.041 -20.345,2.125 -28.675,-4.789 -14.618,-12.133 -32.545,-15.481 -50.036,-20.042 -22.318,-5.818 -44.145,-12.806 -64.108,-24.685 -5.33,-2.076 -10.17,-5.211 -15.512,-7.242 -10.908,-4.89 -20.972,-11.406 -31.633,-16.74 -10.897,-5.45 -14.096,-14.482 -15.022,-25.688 -1.544,-18.735 3.421,-36.004 10.27,-53.044 5.538,-13.774 16.072,-20.867 30.365,-20.68 19.975,0.258 39.683,-2.231 59.481,-3.847 15.761,-1.285 26.418,-8.045 32.412,-24.109 9.594,-25.725 25.531,-48.013 43.369,-68.863 0.961,-0.93 2.154,-1.58 2.992,-2.683 -0.441,-2.078 -4.166,-1.256 -3.747,-3.772 0.417,-2.524 3.173,-1.593 4.847,-2.219 2.265,-0.853 5.035,-0.227 6.908,-2.322 2.074,-1.459 4.279,-2.764 6.207,-4.398 20.676,-17.515 51.62,-32.076 76.266,-42.632 0.33,-0.14 0.62,-0.261 0.885,-0.369 0.374,0.478 0.807,0.922 1.112,1.446 0.292,0.504 0.75,1.192 1.076,1.675 0.548,0.81 1.031,1.369 1.521,2.213 -0.316,0.093 -0.679,0.211 -1.121,0.433 -9.163,4.556 -26.428,12.089 -35.676,16.481 -48.757,23.151 -76.818,64.267 -97.741,111.582 -4.979,11.257 -11.301,20.038 -23.964,23.349 -7.487,1.96 -14.927,3.116 -22.62,3.835 -17.566,1.64 -35.13,2.655 -52.775,2.845 -7.328,0.078 -14.358,2.211 -18.118,9.31 -10.176,19.22 -16.419,39.303 -12.539,61.45 0.792,4.524 2.898,7.812 6.95,10.081 10.918,6.11 22.124,11.81 32.55,18.682 25.053,16.517 52.465,26.948 81.397,34.256 16.67,4.211 33.938,7.199 47.791,19.096 6.269,5.386 14.283,6.611 22.608,5.499 4.856,-0.649 7.064,-3.047 4.751,-7.411 -4.221,-7.953 -0.102,-11.406 6.48,-14.313 9.293,-4.106 18.243,-9.637 22.583,-18.792 7.91,-16.684 22.913,-24.734 37.288,-33.741 6.47,-4.055 13.03,-8.274 21.047,-8.79 2.604,-1.937 6.12,0.568 8.641,-1.775 l -0.099,-0.013 c 2.563,-1.858 6.119,0.788 8.514,-1.837 2.546,-0.478 5.261,-1.792 7.248,1.285 C 4.245,-1.218 2.303,-0.277 0,0"
             style="fill:#ffffff;fill-opacity:1;fill-rule:nonzero;stroke:none"
             id="path26" /></g><g
           id="g28"
           transform="translate(428.9756,409.9189)"><path
             d="M 0,0 C 7.077,0.681 7.077,0.681 5.452,3.877 2.727,3.348 -0.397,4.428 -2.82,2.679 -2.964,2.315 -3.246,1.99 -3.711,1.716 c -0.04,0 -0.082,0.001 -0.121,0 C -3.88,1.658 -3.933,1.607 -3.979,1.546 -8.26,0.604 -12.405,1.354 -16.568,2.117 -21.987,2.467 -27.404,2.927 -32.843,3.144 -40.03,3.053 -47.205,2.76 -54.373,2.346 -60.49,1.766 -66.589,1.07 -72.724,0.729 -73.442,0.619 -74.16,0.5 -74.878,0.381 c -3.953,-0.995 -7.95,-1.577 -11.968,-1.95 -2.397,-0.302 -4.806,-0.502 -7.231,-0.493 2.416,0.114 4.827,0.269 7.231,0.493 4.003,0.499 7.981,1.286 11.968,1.95 0.923,0.232 1.844,0.486 2.763,0.764 5.914,0.441 11.826,0.861 17.742,1.201 4.785,0.454 9.58,0.836 14.414,0.913 2.379,0.039 4.75,-0.023 7.116,-0.115 2.64,0.034 5.28,0.048 7.925,0.022 2.82,-0.03 5.588,-0.544 8.35,-1.049 4.24,-0.274 8.479,-0.471 12.736,-0.401 0.32,0.39 0.657,0.708 1.012,0.963 0.177,0.451 0.134,0.965 -0.183,1.555 -13.692,6.091 -28.153,6.414 -42.611,4.896 -15.255,-1.608 -30.478,-3.78 -45.715,-5.461 -17.469,-1.926 -35.156,-2.663 -51.567,6.552 -4.922,2.765 -9.254,6.675 -14.855,8.252 -2.297,2.27 -1.387,-3.967 -4.473,-1.423 -12.047,9.937 -24.33,19.592 -35.986,30.004 -0.845,0.787 -1.727,1.522 -2.688,2.164 -2.551,1.515 -4.843,3.325 -6.614,5.732 -2.55,3.326 -4.49,7.04 -6.629,10.626 -3.243,4.689 -0.495,9.189 0.383,13.782 1.709,8.935 -1.839,13.738 -10.093,14.408 2.254,0.461 5.169,-1.385 7.627,0.922 -9.14,4.886 -19.215,1.065 -21.008,-8.672 -0.781,-4.247 -2.672,-5.384 -6.182,-6.632 -7.816,-2.782 -15.782,-4.638 -23.929,-6.154 -24.98,-4.644 -49.2,-11.833 -72.188,-22.836 -15.115,-7.234 -19.544,-17.159 -14.581,-32.603 2.353,-7.316 5.194,-14.508 6.997,-21.956 3.242,-13.391 13.034,-18.776 25.088,-21.158 10.092,-1.992 20.393,-1.882 30.625,-0.657 16.663,1.994 32.876,1.583 48.239,-6.619 7.86,-4.196 12.197,-10.067 12.098,-18.95 -0.057,-4.988 1.478,-9.369 3.462,-13.897 6.446,-14.716 17.263,-25.216 30.701,-33.416 12.289,-7.501 24.896,-15 36.043,-23.678 14.282,-11.113 19.306,-27.37 23.279,-44.459 2.284,0.043 4.631,-0.08 6.913,0 -2.092,9.779 -6.024,18.643 -9.992,27.862 -6.339,14.733 -16.773,25.824 -30.945,32.941 -10.758,5.403 -20.82,11.808 -30.347,18.977 -13.455,10.129 -22.609,23.026 -23.103,40.74 -0.209,7.484 -4.379,13.036 -10.406,16.751 -11.549,7.127 -24.008,11.827 -37.881,11.396 -13.93,-0.429 -27.792,-2.355 -41.786,-1.489 -14.311,0.888 -21.9,6.367 -26.389,19.741 -2.264,6.745 -4.431,13.523 -6.57,20.309 -3.542,11.243 -0.959,18.115 9.436,23.302 22.561,11.255 46.552,18.465 71.217,23.078 10.124,1.894 19.932,4.544 29.677,7.602 3.564,1.117 6.962,3.269 6.854,7.696 -0.144,5.859 3.233,9.167 8.215,8.487 6.24,-0.852 5.635,-6.599 4.203,-10.911 -4.41,-13.289 1.595,-22.799 11.008,-30.715 14.594,-12.274 30.199,-23.393 44.323,-36.165 20.769,-18.785 45.326,-21.676 71.082,-17.953 34.281,4.955 68.358,8.588 102.59,0.321 C 8.622,-0.704 3.695,-2.204 0,0"
             style="fill:#ffffff;fill-opacity:1;fill-rule:evenodd;stroke:none"
             id="path30" /></g><g
           id="g32"
           transform="translate(229.2939,456.54)"><path
             d="m 0,0 c -0.573,0.572 -1.145,1.143 -1.717,1.714 -2.365,1.596 -4.42,3.601 -6.834,5.129 -4.664,1.828 -2.908,7.941 -6.84,10.259 -3.478,9.059 1.539,17.48 1.983,26.247 3.051,-4.509 2.048,-9.335 0.64,-13.932 -2.081,-6.803 0.188,-12.09 4.617,-17.284 9.689,22.667 -0.804,46.797 -23.061,54.843 -12.729,4.602 -25.722,6.025 -39.159,7.204 -15.327,1.349 -30.947,3.699 -44.798,12.145 -7.197,4.387 -11.731,10.326 -12.768,18.168 -2.466,18.645 -0.618,36.91 7.48,54.191 2.258,4.819 6.046,8.201 10.645,10.724 28.472,15.622 59.105,24.856 90.873,30.732 3.749,1.623 7.792,0.817 11.639,1.017 5.285,0.274 4.769,-2.47 1.625,-5.413 -14.028,-5.711 -29.266,-6.881 -43.604,-11.611 -17.311,-5.712 -34.686,-11.089 -50.933,-19.599 -7.509,-3.931 -12.505,-9.392 -15.108,-17.523 -3.15,-9.835 -5.622,-19.75 -5.36,-30.105 0.42,-16.483 8.265,-25.887 24.591,-28.862 12.588,-2.291 25.336,-3.698 38.007,-5.533 14.978,-2.17 29.636,-5.309 42.775,-13.594 C -3.316,61.36 1.945,50.447 2.271,36.722 2.563,24.525 1.575,12.28 3.766,0.159 2.559,-1.043 1.297,-0.933 0,0"
             style="fill:#ffffff;fill-opacity:1;fill-rule:evenodd;stroke:none"
             id="path34" /></g><g
           id="g36"
           transform="translate(222.4131,653.2212)"><path
             d="m 0,0 c -0.387,1.121 4.6,2.85 -0.237,3.345 -3.903,0.401 -7.877,0.102 -11.822,0.113 6.482,1.766 12.91,3.765 19.455,5.243 11.779,2.66 22.153,7.659 31.384,15.655 6.071,5.261 13.695,6.181 21.448,3.142 -3.921,-3.664 -9.611,-0.924 -13.02,-3.104 3.3,-0.656 7.606,3.764 11.296,-1.463 C 39.927,18.288 26.815,1.739 7.164,-0.644 4.65,-0.95 2.223,-2.187 0,0"
             style="fill:#ffffff;fill-opacity:1;fill-rule:evenodd;stroke:none"
             id="path38" /></g><g
           id="g40"
           transform="translate(314.7646,636.0986)"><path
             d="m 0,0 c -3.637,-4.46 -8.539,-6.844 -13.896,-8.486 0.217,4.835 -2.804,7.449 -6.333,10.092 -5.801,4.34 -9.63,9.66 -5.818,17.375 2.11,1.347 3.901,0.735 5.52,-0.901 1.639,-2.355 -0.621,-5.67 1.917,-7.811 C -13.2,5.407 -6.81,2.327 0,0"
             style="fill:#ffffff;fill-opacity:1;fill-rule:evenodd;stroke:none"
             id="path42" /></g><g
           id="g44"
           transform="translate(280.5581,675.2866)"><path
             d="m 0,0 c -3.337,3.69 -8.001,0.777 -12.126,2.49 4.648,2.388 9.421,2.691 14.207,2.942 6.362,0.174 11.248,-2.035 13.55,-8.407 0.969,-2.2 0.593,-4.485 0.43,-6.755 -0.769,-1.283 -1.984,-1.664 -3.376,-1.674 C 7.698,-8.455 4.307,-3.718 0,0"
             style="fill:#ffffff;fill-opacity:1;fill-rule:evenodd;stroke:none"
             id="path46" /></g><g
           id="g48"
           transform="translate(215.8857,499.8887)"><path
             d="m 0,0 c 0.255,-8.819 -2.875,-17.381 -1.983,-26.247 -5.786,4.575 -2.033,9.957 -0.965,14.863 2.476,11.365 -1.183,15.397 -12.641,13.289 3.271,2.491 3.271,2.491 12.454,2.812 C -0.971,3.887 -0.04,2.241 0,0"
             style="fill:#ffffff;fill-opacity:1;fill-rule:evenodd;stroke:none"
             id="path50" /></g><g
           id="g52"
           transform="translate(295.8706,665.1309)"><path
             d="M 0,0 C 0.105,2.393 0.212,4.786 0.317,7.18 4.227,-1.473 0.98,-10.116 0.283,-18.764 -2.56,-17.145 -2.995,-14.821 -1.7,-11.991 -4.434,-7.527 -3.877,-3.528 0,0"
             style="fill:#ffffff;fill-opacity:1;fill-rule:evenodd;stroke:none"
             id="path54" /></g><g
           id="g56"
           transform="translate(545.4521,596.6768)"><path
             d="M 0,0 C 2.973,-0.139 6.275,1.324 8.642,-1.776 5.624,-1.85 2.599,-1.959 0,0"
             style="fill:#ffffff;fill-opacity:1;fill-rule:evenodd;stroke:none"
             id="path58" /></g><g
           id="g60"
           transform="translate(553.9941,594.8882)"><path
             d="M 0,0 C 2.983,-0.044 6.315,1.502 8.563,-1.881 5.581,-1.838 2.53,-2.098 0,0"
             style="fill:#ffffff;fill-opacity:1;fill-rule:evenodd;stroke:none"
             id="path62" /></g><g
           id="g64"
           transform="translate(280.5581,675.2866)"><path
             d="m 0,0 c 5.957,-1.091 9.852,-4.43 11.359,-10.385 3.449,-4.438 0.736,-7.321 -2.535,-10.065 -2.397,-8.744 1.963,-13.899 9.203,-17.698 4.21,-2.209 8.175,-4.763 2.284,-9.526 -10.93,-6.032 -21.588,-12.655 -32.882,-17.909 -9.068,-4.218 -12.022,-11.298 -13.104,-20.173 -2.611,-21.421 3.448,-41.056 12.545,-59.99 5.333,-11.096 15.409,-15.133 26.734,-14.91 18.522,0.368 36.876,-1.338 55.225,-3.079 23.632,-2.244 32.506,-7.223 38.5,-28.935 3.078,-11.159 10.554,-20.124 16.505,-29.695 8.072,-12.973 16.277,-26.036 26.848,-37.292 -0.592,-4.089 -3.04,-2.655 -5.3,-1.781 -28.691,5.69 -57.092,1.883 -85.497,-2.511 -12.136,-1.88 -24.414,-1.365 -36.566,-0.477 -9.044,0.657 -16.425,6.615 -24.529,10.225 -3.811,1.695 -7.082,4.605 -10.6,6.966 -11.312,4.4 -18.932,13.818 -28.198,20.977 -2.73,2.111 -6.663,3.48 -7.4,7.67 -2.887,2.95 -4.09,6.111 -3.755,10.586 0.636,8.493 0.351,17.073 0.121,25.608 -0.464,17.238 -9.594,29.294 -25.663,35.666 -18.265,7.242 -37.532,8.987 -56.713,11.348 -9.905,1.218 -19.599,2.622 -28.515,7.89 -6.473,3.826 -10.031,8.916 -11.143,16.126 -2.601,16.856 0.548,32.862 7.285,48.27 2.573,5.886 8.206,8.534 13.548,11.202 26.423,13.186 54.504,21.354 83.306,27.31 3.617,0.747 7.196,1.673 10.792,2.517 14.102,4.285 29.422,5.642 39.852,18.297 C -13.556,1.98 -6.473,0.482 0,0"
             style="fill:#edb052;fill-opacity:1;fill-rule:evenodd;stroke:none"
             id="path66" /></g><g
           id="g68"
           transform="translate(425.9404,413.8486)"><path
             d="M 0,0 C 1.763,0.611 4.023,-0.273 5.3,1.781 6.363,1.17 7.426,0.559 8.487,-0.053 6.212,-3.222 2.941,-1.111 0.163,-1.615 L 0.129,-1.633 C 0.074,-1.088 0.032,-0.545 0,0"
             style="fill:#ffffff;fill-opacity:1;fill-rule:evenodd;stroke:none"
             id="path70" /></g><g
           id="g72"
           transform="translate(233.1504,456.6987)"><path
             d="m 0,0 c 11.867,-9.55 23.732,-19.101 35.598,-28.647 0.719,-1.517 1.44,-3.034 3.103,-6.54 C 22.667,-23.715 8.515,-13.061 -3.856,-0.159 -2.571,-0.107 -1.285,-0.053 0,0"
             style="fill:#ffffff;fill-opacity:1;fill-rule:evenodd;stroke:none"
             id="path74" /></g><g
           id="g76"
           transform="translate(355.8086,410.3828)"><path
             d="m 0,0 c 7.139,2.695 14.698,3.092 22.139,3.307 16.051,0.46 32.125,0.396 48.122,-1.474 0,0 0.031,0.013 0.032,0.018 C 68.416,-0.572 65.628,-0.354 63.25,0.08 42.149,3.931 21.08,0.437 0,0"
             style="fill:#ffffff;fill-opacity:1;fill-rule:evenodd;stroke:none"
             id="path78" /></g><g
           id="g80"
           transform="translate(309.6777,408.1562)"><path
             d="M 0,0 C -9.002,-2.679 -16.633,1.358 -24.386,4.781 -15.811,5.362 -8.823,-1.801 0,0"
             style="fill:#ffffff;fill-opacity:1;fill-rule:evenodd;stroke:none"
             id="path82" /></g><g
           id="g84"
           transform="translate(355.5693,409.7852)"><path
             d="M 0,0 C -7.474,-1.027 -14.428,-3.823 -21.836,-2.117 -14.547,-0.642 -7.354,1.553 0,0"
             style="fill:#ffffff;fill-opacity:1;fill-rule:evenodd;stroke:none"
             id="path86" /></g><g
           id="g88"
           transform="translate(220.7432,463.3828)"><path
             d="M 0,0 C 3.461,-0.13 5.332,-2.384 6.833,-5.129 3.37,-4.999 1.504,-2.741 0,0"
             style="fill:#ffffff;fill-opacity:1;fill-rule:evenodd;stroke:none"
             id="path90" /></g><g
           id="g92"
           transform="translate(289.3823,654.8364)"></g></g></g></g></svg>
